<?xml version="1.0" encoding="UTF-8"?>
<!DOCTYPE svg PUBLIC "-//W3C//DTD SVG 1.1//EN" "http://www.w3.org/Graphics/SVG/1.1/DTD/svg11.dtd">
<!-- Creator: CorelDRAW X6 -->
<svg xmlns="http://www.w3.org/2000/svg" xml:space="preserve" width="12.3056in" height="4.29166in" version="1.1" style="shape-rendering:geometricPrecision; text-rendering:geometricPrecision; image-rendering:optimizeQuality; fill-rule:evenodd; clip-rule:evenodd"
viewBox="0 0 12306 4292"
 xmlns:xlink="http://www.w3.org/1999/xlink">
 <defs>
  <style type="text/css">
   <![CDATA[
    .fil0 {fill:#2B2C2D;fill-rule:nonzero}
   ]]>
  </style>
 </defs>
 <g id="Layer_x0020_1">
  <metadata id="CorelCorpID_0Corel-Layer"/>
  <path class="fil0" d="M9155 4194c8,19 22,34 41,45 19,10 41,16 66,16 27,0 50,-8 69,-24 19,-16 29,-38 29,-65 0,-16 -7,-32 -21,-46 -14,-15 -37,-30 -71,-47 -33,-17 -58,-36 -75,-58 -17,-22 -25,-49 -25,-81 0,-46 18,-82 54,-108 29,-21 61,-31 96,-31 37,0 67,9 90,28 21,17 31,37 31,61 0,16 -5,28 -13,38 -9,10 -20,15 -32,15 -12,0 -21,-4 -27,-11 -6,-7 -9,-16 -7,-26 2,-16 12,-28 30,-36 -4,-9 -12,-17 -26,-24 -13,-7 -30,-10 -50,-10 -26,0 -47,7 -64,22 -17,15 -25,35 -25,59 0,32 27,61 80,86 34,16 61,35 80,56 23,26 34,56 34,91 0,45 -16,81 -47,108 -31,27 -69,40 -112,40 -45,0 -82,-13 -111,-40 -26,-23 -39,-49 -39,-78 0,-21 5,-36 15,-46 10,-10 23,-15 37,-15 11,0 20,4 26,11 6,7 10,15 10,24 0,11 -5,21 -14,30 -9,9 -19,14 -29,16zm-876 -152c3,-12 5,-25 6,-40 1,-15 2,-28 2,-40 0,-42 -7,-74 -22,-96 -15,-22 -36,-33 -63,-33 -25,0 -50,16 -73,47 -29,38 -49,92 -61,162 -7,40 -11,76 -11,108 0,36 6,62 17,78 11,16 28,23 51,23 35,0 67,-18 95,-55 29,-37 49,-88 60,-154zm48 146c-1,4 -2,7 -2,11 0,5 0,8 0,10 0,13 3,22 9,27 4,3 9,5 17,5 19,0 35,-12 50,-37 14,-25 25,-60 33,-106 3,-15 10,-22 22,-22 7,0 12,3 13,8 2,5 2,10 1,15 -8,47 -23,87 -43,120 -27,43 -59,64 -98,64 -22,0 -40,-6 -54,-19 -16,-14 -23,-34 -23,-59 -17,27 -38,48 -63,64 -25,15 -50,23 -75,23 -42,0 -74,-16 -99,-48 -24,-32 -37,-76 -37,-131 0,-21 2,-44 6,-69 12,-70 42,-130 90,-179 44,-46 88,-69 132,-69 50,0 84,28 102,83l12 -62c0,-3 3,-5 8,-5 9,3 18,5 28,5 5,0 11,-1 18,-2 6,-2 11,-2 13,-2 5,0 7,2 7,5l-66 373zm-1602 -261c18,-35 41,-65 69,-90 32,-29 64,-43 95,-43 33,0 57,10 73,29 16,19 23,47 23,84 0,10 0,18 0,23 18,-36 42,-67 71,-92 33,-29 65,-44 95,-44 32,0 56,10 72,30 16,20 23,48 23,84 0,18 -2,38 -6,59l-40 220c0,4 -1,8 -1,12 0,5 0,8 0,10 0,13 2,21 7,25 5,4 11,6 18,6 19,0 35,-12 50,-37 14,-25 25,-60 33,-106 3,-15 10,-22 22,-22 7,0 12,3 13,8 2,5 2,10 1,15 -8,47 -23,87 -43,120 -27,43 -59,64 -98,64 -21,0 -39,-6 -54,-19 -15,-13 -22,-31 -22,-55 0,-3 0,-10 0,-20l47 -257c3,-13 4,-26 4,-39 0,-33 -15,-50 -46,-50 -32,0 -66,23 -102,69 -36,46 -59,98 -69,156l-35 205c0,4 -3,6 -8,6 -9,-3 -19,-4 -29,-4 -5,0 -11,1 -18,2 -7,1 -11,2 -13,2 -5,0 -7,-2 -7,-6l60 -341c3,-14 4,-27 4,-40 0,-32 -15,-49 -45,-49 -32,0 -66,23 -102,69 -36,46 -59,98 -69,156l-36 204c0,4 -3,6 -8,6 -9,-3 -19,-4 -28,-4 -5,0 -11,1 -18,2 -7,1 -11,2 -13,2 -5,0 -7,-2 -7,-6l74 -420c-26,0 -43,1 -52,2 -9,1 -16,2 -23,3 -12,0 -17,-7 -14,-20 1,-6 3,-11 7,-15 4,-4 9,-6 13,-6 1,0 11,0 29,0 18,0 33,0 46,0 9,0 18,0 26,-1 8,-1 18,-2 30,-3 11,0 16,7 14,20l-18 97zm-1040 109c48,-4 89,-17 122,-36 42,-24 66,-56 73,-97 1,-8 2,-14 2,-18 0,-35 -15,-53 -46,-53 -38,0 -70,18 -95,53 -25,35 -44,85 -56,151zm-6 35c-3,17 -4,35 -4,53 0,83 30,125 90,125 29,0 54,-8 77,-23 23,-15 43,-40 59,-73 2,-4 4,-8 6,-10 5,-6 11,-10 18,-10 10,0 16,5 16,16 0,3 -1,6 -2,10 -1,4 -3,7 -5,11 -27,45 -57,77 -91,96 -28,15 -60,23 -97,23 -44,0 -80,-17 -108,-52 -28,-35 -41,-80 -41,-137 0,-9 0,-19 1,-29 1,-10 2,-20 4,-30 13,-74 44,-134 94,-182 46,-44 95,-66 147,-66 33,0 60,8 80,24 20,16 30,38 30,65 0,3 -1,9 -2,16 -10,55 -45,98 -106,128 -45,22 -100,36 -165,43zm-1116 -144c18,-34 42,-64 72,-90 34,-29 67,-43 100,-43 35,0 61,10 78,31 17,21 25,50 25,87 0,18 -2,36 -6,55l-40 220c0,4 -1,8 -1,12 0,5 0,8 0,10 0,13 2,21 7,25 5,4 11,6 18,6 19,0 35,-12 50,-37 14,-25 25,-60 33,-106 3,-15 10,-22 22,-22 7,0 12,3 13,8 2,5 2,10 1,15 -8,47 -23,87 -43,120 -27,43 -59,64 -98,64 -21,0 -39,-6 -54,-19 -15,-13 -22,-31 -22,-55 0,-3 0,-10 0,-20l46 -253c3,-13 4,-26 4,-38 0,-34 -17,-51 -50,-51 -35,0 -71,22 -109,67 -38,45 -62,96 -72,154l-36 204c0,4 -3,6 -8,6 -9,-3 -19,-4 -28,-4 -5,0 -11,1 -18,2 -7,1 -11,2 -13,2 -5,0 -7,-2 -7,-6l74 -420c-26,0 -43,1 -52,2 -9,1 -16,2 -23,3 -12,0 -17,-7 -14,-20 1,-6 3,-11 7,-15 4,-4 9,-6 13,-6 1,0 11,0 29,0 18,0 33,0 46,0 9,0 18,0 26,-1 8,-1 19,-2 30,-3 11,0 16,7 14,20l-18 97zm-924 -304c3,-13 9,-24 19,-32 10,-8 21,-13 35,-13 13,0 23,4 30,13 7,8 9,19 7,32 -2,13 -8,24 -18,32 -10,8 -22,13 -35,13 -12,0 -22,-4 -29,-13 -7,-8 -10,-19 -8,-32zm-19 565c0,4 0,8 0,12 0,5 0,8 0,10 0,13 2,21 7,25 5,4 11,6 18,6 19,0 35,-12 50,-37 14,-25 25,-60 33,-106 3,-15 10,-22 22,-22 7,0 11,3 13,8 2,5 2,10 1,15 -8,47 -23,87 -43,120 -27,43 -59,64 -98,64 -21,0 -39,-6 -54,-19 -15,-13 -22,-31 -22,-55 0,-3 0,-10 0,-20l60 -336c-26,0 -43,1 -52,2 -9,1 -16,2 -23,3 -12,0 -17,-7 -14,-20 1,-6 3,-11 7,-15 4,-4 9,-6 13,-6 1,0 11,0 29,0 18,0 33,0 46,0 9,0 18,0 26,-1 8,-1 19,-2 30,-3 11,0 16,7 14,20l-65 358zm-878 -355c-39,0 -71,16 -95,48 -25,32 -44,86 -57,161 -6,34 -9,64 -9,88 0,41 8,72 23,91 16,19 37,29 65,29 48,0 89,-32 123,-96 3,-6 5,-9 6,-11 5,-6 10,-10 17,-10 10,0 16,5 16,16 0,3 -1,7 -3,12 -2,5 -4,10 -7,14 -27,44 -55,75 -85,92 -25,15 -54,22 -87,22 -47,0 -83,-16 -109,-49 -26,-32 -39,-77 -39,-133 0,-21 2,-43 6,-66 13,-74 41,-134 83,-179 42,-46 91,-69 147,-69 34,0 63,10 89,31 25,21 38,46 38,77 0,4 -1,10 -2,19 -3,17 -10,30 -20,40 -10,10 -22,15 -36,15 -12,0 -21,-4 -29,-11 -8,-7 -11,-17 -11,-28 0,-4 1,-9 2,-16 1,-7 7,-15 18,-25 10,-10 21,-15 33,-15 -3,-16 -11,-29 -26,-37 -15,-9 -31,-13 -50,-13zm912 -2177c19,-1 20,-2 14,-19l-4 -11c-68,-164 -135,-328 -203,-493 -21,-51 -22,-51 -77,-43l-21 15 -7 20c-55,154 -109,308 -164,462 -9,25 -18,50 -27,75 -6,17 -4,19 14,19l18 -1c73,-4 145,-8 218,-11l21 -1c73,-4 145,-7 218,-11zm-39 -1231c126,285 252,570 378,856 138,313 277,626 415,939 29,66 57,132 87,198l-9 16 -9 0c-162,8 -325,17 -487,26 -18,1 -26,-5 -33,-20 -45,-105 -92,-210 -137,-315 -8,-18 -16,-25 -37,-24 -241,13 -482,26 -723,38 -34,2 -27,2 -37,26 -44,105 -83,211 -112,321 -8,30 -9,30 -41,32 -85,5 -170,9 -254,14 -68,3 -122,8 -190,11l-8 -5 5 -19 6 -15c49,-134 98,-268 147,-402 94,-257 187,-514 281,-772 82,-225 164,-449 246,-673 35,-95 68,-190 103,-285 127,-7 254,-13 381,-20l14 42 14 32zm4585 2074c0,49 -5,45 43,42 422,-22 845,-44 1267,-66l15 -1c28,-1 26,-4 26,-42 0,-131 0,-262 0,-393l0 -18c-1,-20 -1,-20 -21,-19l-24 1c-263,14 -526,28 -790,41l-21 1c-23,1 -24,1 -24,-22 0,-108 0,-216 0,-324 0,-24 0,-24 26,-25 185,-10 371,-20 557,-29 28,-2 56,-3 85,-4 22,-1 23,-2 23,-25 0,-70 0,-139 0,-209l0 -209c0,-30 4,-31 -32,-29 -204,11 -408,22 -611,32 -55,3 -47,8 -47,-44 0,-86 0,-171 0,-257l1 -24 11 -11 27 -2c265,-14 530,-28 795,-42l24 -1c20,-2 21,-2 21,-21 0,-152 -1,-304 -1,-457 -450,24 -900,47 -1349,71l-1 36 0 2051zm-6413 -2124l15 -12 -2 -21c-89,-72 -183,-133 -286,-182 -89,-42 -180,-74 -275,-90 -24,-4 -47,-10 -70,-16 -38,-2 -77,-4 -115,-6l-32 4c-43,3 -86,3 -128,10 -195,30 -368,107 -517,231 -137,114 -239,254 -305,421 -37,92 -60,189 -67,289 -12,155 6,308 58,458 43,124 105,239 186,342 105,133 232,240 383,318 112,59 230,97 353,117 90,15 181,18 271,9 40,-4 79,-10 117,-18 67,-15 132,-36 195,-65 120,-54 224,-131 320,-218l-1 -23c-119,-98 -237,-196 -356,-295 -42,-35 -28,-33 -68,-2 -127,97 -270,134 -433,103 -162,-31 -296,-112 -396,-247 -123,-165 -159,-347 -97,-535 67,-203 213,-326 422,-374 76,-17 153,-17 230,1 72,17 140,44 204,81 26,15 20,17 44,-3 51,-41 101,-81 152,-122 66,-53 132,-106 198,-159zm5540 -225l-1 -39c-171,-9 -343,-18 -514,-27 -55,82 -109,163 -163,245 -150,224 -301,448 -451,672 -21,32 -21,31 -41,-2 -189,-319 -377,-638 -566,-956l-13 -24c-163,-9 -327,-17 -490,-26l-1 36 0 2057c0,38 -2,42 17,43l25 1c143,8 287,15 430,23 34,2 31,4 31,-30 0,-380 0,-760 0,-1140l3 -35 22 29c176,285 351,570 527,856l11 18 27 17c51,5 51,5 79,-37 183,-269 366,-538 549,-807l17 -20 5 27c0,382 0,765 0,1147 0,38 -2,42 17,43l24 1c138,8 276,15 415,22l15 1c26,1 26,1 27,-25l0 -2069zm4494 1210c31,-112 28,-223 -10,-333 -43,-127 -119,-233 -225,-315 -178,-137 -375,-179 -587,-94 -242,98 -370,285 -397,542 -11,109 10,215 58,314 112,228 297,347 554,360 35,-4 73,-6 111,-13 237,-47 435,-238 496,-462zm-883 910c-37,-10 -74,-22 -111,-36 -113,-44 -216,-104 -308,-182 -96,-80 -175,-175 -239,-282 -85,-143 -134,-297 -149,-461 -11,-122 -2,-243 29,-363 23,-91 56,-177 100,-259 24,-44 50,-86 80,-127 56,-77 120,-147 194,-207 96,-78 201,-139 319,-181 93,-34 189,-56 288,-61l29 -6 97 0 29 5c61,2 122,12 182,26 132,29 255,81 366,157 132,90 237,205 317,343 84,145 129,301 144,466 7,81 6,163 -4,244 -9,69 -23,137 -43,203 -29,93 -69,180 -121,262 -42,66 -90,126 -145,181 -69,68 -146,127 -231,174 -76,42 -156,75 -240,97 -76,20 -153,32 -232,38 -65,6 -129,3 -193,-4 -54,-5 -106,-15 -158,-29z"/>
 </g>
</svg>
