<?xml version="1.0" encoding="UTF-8"?>
<!DOCTYPE svg PUBLIC "-//W3C//DTD SVG 1.1//EN" "http://www.w3.org/Graphics/SVG/1.1/DTD/svg11.dtd">
<!-- Creator: CorelDRAW X6 -->
<svg xmlns="http://www.w3.org/2000/svg" xml:space="preserve" width="2.95833in" height="2.26389in" version="1.1" style="shape-rendering:geometricPrecision; text-rendering:geometricPrecision; image-rendering:optimizeQuality; fill-rule:evenodd; clip-rule:evenodd"
viewBox="0 0 2958 2264"
 xmlns:xlink="http://www.w3.org/1999/xlink">
 <defs>
  <style type="text/css">
   <![CDATA[
    .fil1 {fill:#373435;fill-rule:nonzero}
    .fil0 {fill:#333436;fill-rule:nonzero}
   ]]>
  </style>
 </defs>
 <g id="Layer_x0020_1">
  <metadata id="CorelCorpID_0Corel-Layer"/>
  <path class="fil0" d="M1894 1422c0,62 36,108 108,140l38 16c47,21 69,42 69,78 0,34 -27,55 -74,55 -42,0 -79,-27 -101,-57l-59 50c30,49 89,82 161,82 92,0 152,-55 152,-136 0,-67 -45,-109 -110,-137l-37 -17c-48,-20 -69,-42 -69,-73 0,-33 31,-52 63,-52 34,0 56,13 81,42l54 -56c-35,-42 -79,-61 -134,-61 -73,0 -142,50 -142,127z"/>
  <polygon class="fil0" points="1547,2043 1547,2261 1575,2261 1575,2111 1652,2198 1730,2111 1730,2261 1757,2261 1757,2043 1652,2159 "/>
  <path class="fil0" d="M2212 2143l-20 -9c-23,-10 -32,-21 -32,-36 0,-18 16,-28 34,-28 19,0 31,7 42,21l19 -19c-15,-18 -35,-28 -60,-28 -32,0 -63,21 -63,54 0,27 14,47 47,61l20 8c23,10 35,20 35,40 0,19 -16,30 -41,30 -21,0 -39,-12 -49,-25l-21 18c13,18 39,33 70,33 42,0 68,-25 68,-60 0,-30 -22,-48 -51,-61z"/>
  <path class="fil0" d="M1912 2179l36 -77 36 77 -73 0zm-69 82l30 0 27 -57 97 0 27 57 30 0 -105 -218 -105 218z"/>
  <polygon class="fil0" points="2326,1779 2405,1779 2405,1301 2326,1301 "/>
  <path class="fil0" d="M2790 1711c-94,0 -165,-75 -165,-171 0,-96 71,-171 165,-171 47,0 89,19 119,51l50 -55 0 -1c-44,-46 -102,-69 -169,-69 -136,0 -245,107 -245,245 0,138 109,245 245,245 67,0 125,-23 169,-69l0 -1 -50 -55c-30,32 -72,51 -119,51z"/>
  <path class="fil0" d="M1666 1512l-37 -17c-48,-20 -69,-42 -69,-73 0,-33 31,-52 63,-52 34,0 56,13 81,42l54 -56c-35,-42 -79,-61 -134,-61 -73,0 -142,50 -142,127 0,62 36,108 108,140l38 16c47,21 69,42 69,78 0,34 -27,55 -74,55 -42,0 -79,-27 -101,-57l-59 50c30,49 89,82 161,82 92,0 152,-55 152,-136 0,-67 -45,-109 -110,-137z"/>
  <polygon class="fil0" points="619,1301 541,1301 541,1779 821,1779 821,1702 619,1702 "/>
  <path class="fil0" d="M245 1369c47,0 89,19 119,51l51 -55c-44,-46 -102,-69 -169,-69 -136,0 -245,107 -245,245 0,138 109,245 245,245 67,0 125,-24 169,-69l-51 -55c-30,32 -72,51 -119,51 -94,0 -165,-75 -165,-171 0,-96 71,-171 165,-171z"/>
  <polygon class="fil0" points="898,2261 926,2261 926,2046 898,2046 "/>
  <path class="fil0" d="M738 2070c22,0 40,8 54,20l16 -21c-19,-17 -43,-26 -70,-26 -62,0 -110,48 -110,110 0,63 49,110 110,110 27,0 51,-9 70,-26l-16 -21c-14,12 -32,20 -54,20 -47,0 -82,-36 -82,-84 0,-47 35,-84 82,-84z"/>
  <polygon class="fil0" points="1190,2199 1036,2043 1036,2261 1064,2261 1064,2108 1217,2264 1217,2046 1190,2046 "/>
  <polygon class="fil0" points="1328,2261 1452,2261 1452,2235 1355,2235 1355,2165 1434,2165 1434,2138 1355,2138 1355,2073 1452,2073 1452,2046 1328,2046 "/>
  <path class="fil0" d="M1081 1601l67 -142 66 142 -133 0zm67 -306l-234 484 84 0 50 -107 200 0 50 107 84 0 -234 -484z"/>
  <path class="fil1" d="M2073 884c-5,-4 -11,-8 -18,-10 -7,-3 -15,-4 -23,-6 -16,-5 -31,-9 -43,-12 -12,-3 -20,-5 -20,-5 0,0 -1,0 -1,1 0,1 0,1 0,2 0,0 7,4 17,10 10,6 25,14 39,22 7,4 14,9 21,12 7,3 14,4 20,5 12,2 22,0 22,0 0,0 0,0 1,0 1,0 1,-1 0,-2 0,0 -5,-8 -15,-15z"/>
  <path class="fil1" d="M2032 639c-27,2 -53,3 -73,5 -20,2 -33,3 -33,3 -1,0 -1,0 -1,1 0,1 0,1 1,1 0,0 13,1 33,3 20,2 46,3 73,5 13,1 27,3 39,3 12,0 24,-1 34,-3 20,-3 33,-8 33,-8 0,0 1,0 1,-1 0,-1 0,-1 -1,-2 0,0 -13,-5 -33,-8 -10,-2 -22,-3 -34,-3 -12,0 -26,2 -39,3z"/>
  <path class="fil1" d="M1845 493c-26,13 -44,21 -44,21 -1,0 -1,1 -1,1 0,1 1,1 1,1 0,0 18,-6 46,-16 28,-9 64,-23 100,-36 18,-7 37,-13 54,-19 17,-7 32,-15 45,-22 26,-14 42,-26 42,-26 0,0 1,-1 0,-1 0,-1 -1,-1 -1,-1 0,0 -20,3 -48,11 -14,4 -30,10 -47,16 -17,7 -34,16 -52,24 -35,17 -70,33 -97,46z"/>
  <path class="fil1" d="M1695 432c0,0 0,1 0,2 0,0 1,1 2,0 0,0 16,-15 41,-37 25,-22 57,-52 89,-82 16,-15 33,-29 48,-44 15,-15 27,-29 38,-42 21,-25 33,-45 33,-45 0,0 0,-1 0,-1 0,-1 -1,-1 -2,0 0,0 -19,12 -45,33 -13,11 -27,23 -42,38 -14,15 -29,32 -44,48 -30,32 -60,65 -82,89 -22,25 -37,41 -37,41z"/>
  <path class="fil1" d="M1603 355c0,0 9,-19 23,-48 14,-29 32,-67 49,-106 9,-19 18,-38 26,-57 8,-18 14,-36 18,-51 9,-31 13,-52 13,-52 0,0 0,-1 0,-1 -1,0 -1,0 -2,0 0,0 -13,18 -28,46 -8,14 -16,31 -23,49 -7,19 -14,39 -21,59 -15,40 -30,80 -40,110 -11,30 -18,50 -18,50 0,1 0,1 1,1 1,0 1,0 2,-1z"/>
  <path class="fil1" d="M1476 274c2,31 3,52 3,52 0,1 1,1 1,1 1,0 1,0 1,-1 0,0 1,-21 3,-52 2,-31 3,-73 5,-115 1,-21 2,-42 3,-62 0,-20 -1,-38 -3,-54 -3,-31 -8,-52 -8,-52 0,0 0,-1 -1,-1l0 0 0 0c-1,0 -1,0 -1,1 0,0 -5,21 -8,52 -2,16 -3,34 -3,54 0,20 2,41 3,62 2,42 3,84 5,115z"/>
  <path class="fil1" d="M1261 150c8,19 19,39 28,60 19,41 37,82 52,112 15,30 24,51 24,51 0,1 1,1 1,1 1,0 1,-1 1,-1 0,0 -8,-21 -19,-53 -11,-32 -27,-74 -43,-116 -8,-21 -15,-42 -23,-62 -8,-19 -17,-37 -25,-52 -16,-30 -29,-49 -29,-49 0,0 -1,-1 -1,0 -1,0 -1,1 -1,1 0,0 4,23 14,55 5,16 11,35 20,54z"/>
  <path class="fil1" d="M1081 267c14,14 30,28 46,42 31,29 62,58 86,79 24,21 39,35 39,35 0,0 1,0 2,0 0,0 1,-1 0,-2 0,0 -14,-16 -35,-39 -21,-24 -50,-55 -78,-86 -14,-16 -28,-32 -42,-46 -14,-14 -28,-26 -40,-36 -24,-20 -43,-32 -43,-32 0,0 -1,0 -1,0 -1,0 -1,1 0,2 0,0 11,19 32,43 10,12 22,26 36,40z"/>
  <path class="fil1" d="M905 421c10,6 23,12 36,18 14,5 29,10 44,15 30,11 60,21 82,29 23,8 38,13 38,13 1,0 1,0 1,-1 0,-1 0,-1 -1,-2 0,0 -14,-7 -35,-18 -21,-11 -50,-24 -78,-38 -14,-7 -28,-14 -42,-20 -14,-6 -27,-10 -39,-13 -23,-6 -40,-8 -40,-8 0,0 -1,0 -1,0 0,1 0,1 0,2 0,0 13,11 33,23z"/>
  <path class="fil1" d="M833 658c3,2 7,3 12,3 4,0 9,-2 13,-3 9,-2 18,-3 25,-5 7,-2 11,-3 11,-3 0,0 1,0 1,-1 0,-1 0,-1 -1,-2 0,0 -5,-1 -11,-3 -7,-2 -16,-3 -25,-5 -5,-1 -9,-3 -13,-3 -4,0 -8,1 -12,3 -7,3 -11,8 -11,8 -1,1 -1,2 0,2 0,0 5,5 11,8z"/>
  <path class="fil1" d="M2104 771c1,-1 1,-2 0,-2 0,0 -5,-6 -12,-10 -4,-2 -9,-4 -14,-5 -5,-1 -11,0 -17,0 -11,0 -23,-1 -31,0 -9,0 -14,1 -14,1 0,0 -1,0 -1,1 0,1 0,1 1,2 0,0 5,2 13,5 8,3 19,7 30,10 5,2 11,4 16,6 5,1 10,1 15,0 9,-1 15,-6 15,-6 0,0 0,0 0,0z"/>
  <path class="fil1" d="M1996 555c10,-1 20,-1 29,-3 9,-2 17,-5 24,-8 14,-6 22,-13 22,-13 0,0 0,0 0,-1 0,-1 0,-1 -1,-2 0,0 -11,-3 -26,-3 -7,0 -16,0 -25,2 -9,2 -18,6 -28,8 -19,6 -38,11 -52,16 -14,4 -23,8 -23,8 0,0 -1,1 -1,1 0,1 1,1 1,1 0,0 10,-1 25,-2 15,-1 34,-3 54,-6z"/>
  <path class="fil1" d="M1916 343c-9,6 -17,14 -26,21 -18,14 -35,28 -48,38 -13,11 -22,18 -22,18 0,0 -1,1 0,1 0,1 1,1 2,0 0,0 10,-5 25,-13 15,-8 34,-19 54,-30 10,-6 20,-10 29,-16 9,-6 16,-12 22,-18 12,-12 19,-22 19,-22 0,0 0,-1 0,-1 0,-1 -1,-1 -1,-1 0,0 -12,2 -28,9 -8,3 -17,8 -25,14z"/>
  <path class="fil1" d="M1695 324c0,0 0,1 0,1 1,0 1,0 2,0 0,0 8,-10 20,-24 12,-15 27,-35 42,-54 8,-10 16,-19 23,-29 6,-10 12,-20 15,-28 8,-17 11,-30 11,-30 0,0 0,-1 0,-1 0,-1 -1,-1 -2,0 0,0 -11,8 -24,22 -7,7 -14,15 -20,25 -6,10 -12,21 -18,32 -12,22 -25,43 -34,60 -9,17 -15,28 -15,28z"/>
  <path class="fil1" d="M1561 248c0,0 3,-11 8,-28 5,-17 11,-39 17,-61 3,-11 7,-22 9,-33 2,-11 3,-21 3,-29 1,-17 -2,-30 -2,-30 0,0 0,-1 -1,-1 -1,0 -1,0 -2,0 0,0 -7,10 -13,27 -3,8 -6,18 -8,28 -2,11 -2,22 -4,34 -3,23 -6,46 -7,63 -2,17 -3,29 -3,29 0,1 0,1 1,1 1,0 1,0 1,-1z"/>
  <path class="fil1" d="M1363 124c3,12 7,24 10,36 7,24 13,49 19,67 5,18 9,30 9,30 0,1 1,1 1,1 1,0 1,-1 1,-1 0,0 -1,-13 -3,-32 -2,-19 -5,-44 -9,-69 -2,-13 -2,-25 -5,-37 -2,-12 -6,-22 -9,-31 -7,-18 -14,-29 -14,-29 0,0 0,0 -1,-1 -1,0 -1,0 -1,1 0,0 -3,13 -2,33 0,10 1,21 4,32z"/>
  <path class="fil1" d="M1180 221c7,10 16,20 24,31 16,21 33,43 45,58 13,16 21,26 21,26 0,0 1,1 1,0 1,0 1,-1 0,-2 0,0 -6,-12 -16,-29 -10,-18 -23,-41 -37,-64 -7,-12 -13,-24 -20,-34 -7,-10 -15,-19 -21,-27 -14,-15 -25,-23 -25,-23 0,0 -1,0 -1,0 -1,0 -1,1 -1,1 0,0 3,14 12,32 4,9 10,20 17,30z"/>
  <path class="fil1" d="M990 333c7,6 15,13 25,20 10,6 21,12 32,18 22,12 43,25 59,34 16,9 27,15 27,15 0,0 1,0 1,0 0,-1 0,-1 0,-2 0,0 -10,-8 -24,-20 -14,-12 -34,-27 -54,-42 -10,-8 -19,-16 -29,-23 -10,-6 -19,-12 -28,-15 -17,-8 -30,-11 -30,-11 0,0 -1,0 -1,0 -1,0 -1,1 0,2 0,0 7,11 21,24z"/>
  <path class="fil1" d="M935 547c13,2 27,4 37,4 10,1 17,1 17,1 0,0 1,0 1,-1 0,-1 0,-1 -1,-2 0,0 -6,-3 -15,-7 -9,-4 -22,-9 -34,-14 -6,-2 -12,-6 -18,-8 -6,-2 -12,-2 -17,-2 -10,0 -18,4 -18,4 0,0 0,0 0,0 -1,0 -1,1 0,2 0,0 5,7 14,12 4,3 10,5 16,7 6,1 13,1 20,2z"/>
  <path class="fil1" d="M894 761c-7,0 -16,0 -25,0 -5,0 -9,-1 -14,0 -4,1 -8,3 -11,5 -6,4 -9,10 -9,10 0,1 0,2 0,2 0,0 5,4 13,6 4,1 8,1 12,0 4,-1 8,-4 12,-5 8,-4 17,-7 23,-10 6,-3 11,-5 11,-5 0,0 1,-1 1,-1 0,-1 0,-1 -1,-1 0,0 -5,0 -12,-1z"/>
  <path class="fil1" d="M1782 1001l-4 -39 63 10 5 34c-21,-2 -42,-4 -64,-5zm-68 -4c-15,-1 -30,-2 -45,-2l-4 -50 72 11 4 42c-9,-1 -18,-1 -27,-2zm-124 -5c0,0 -1,0 -1,0l-31 -2 -2 -62 71 11 5 54c-14,-1 -28,-1 -42,-1zm-156 -11l-2 -72 81 12 2 66 -81 -6zm652 57c-37,-6 -90,-15 -154,-22 -16,-2 -32,-3 -49,-5l-4 -31c0,0 51,-5 75,-7 0,-1 0,-2 0,-3 -32,-19 -63,-38 -96,-58 -2,-13 -36,-255 -36,-255l-20 -13 -46 -77 -45 37 -28 -12 -55 -85 -44 45 -49 -20 -51 -92c0,0 -35,37 -52,55 -11,-2 -20,-5 -30,-7 -6,-1 -15,0 -21,1l0 0 0 -1 -297 110 -65 388 24 -2 61 -369 274 -102 -1 14c3,71 8,226 9,301 24,18 46,36 72,55 -24,6 -45,11 -68,17l0 92c-19,0 -38,1 -57,1 -42,1 -84,3 -124,6 -40,2 -79,5 -115,9 -37,3 -71,7 -103,10 -64,7 -117,15 -154,21 -37,6 -58,11 -58,11 0,0 21,-3 58,-6 37,-4 90,-8 154,-13 32,-2 67,-5 103,-6 37,-2 75,-3 115,-5 40,-2 81,-2 123,-4 42,-1 85,-1 127,-1 43,0 85,0 127,1 42,1 83,2 123,3 80,3 155,6 218,11 64,5 117,9 154,13 37,4 58,7 58,7 0,0 -21,-5 -58,-11z"/>
 </g>
</svg>
