<?xml version="1.0" encoding="UTF-8"?>
<!DOCTYPE svg PUBLIC "-//W3C//DTD SVG 1.1//EN" "http://www.w3.org/Graphics/SVG/1.1/DTD/svg11.dtd">
<!-- Creator: CorelDRAW X6 -->
<svg xmlns="http://www.w3.org/2000/svg" xml:space="preserve" width="11.6806in" height="8.26389in" version="1.1" style="shape-rendering:geometricPrecision; text-rendering:geometricPrecision; image-rendering:optimizeQuality; fill-rule:evenodd; clip-rule:evenodd"
viewBox="0 0 11681 8264"
 xmlns:xlink="http://www.w3.org/1999/xlink">
 <defs>
  <style type="text/css">
   <![CDATA[
    .fil0 {fill:#373435;fill-rule:nonzero}
   ]]>
  </style>
 </defs>
 <g id="Layer_x0020_1">
  <metadata id="CorelCorpID_0Corel-Layer"/>
  <path class="fil0" d="M2103 4947l1202 -109c49,-4 88,41 88,102l0 527c0,61 -39,115 -88,121l-1745 209c-61,8 -109,-40 -109,-104l0 -3112c0,-69 48,-121 109,-118l441 7c57,3 102,57 102,123l0 2355z"/>
  <path class="fil0" d="M4649 2528c43,2 77,49 77,102l0 2692c0,58 -34,107 -77,113l-451 52c-45,6 -81,-36 -81,-96l0 -2770c0,-55 36,-101 81,-99l451 5z"/>
  <path class="fil0" d="M6487 3222l-455 3 0 1390 455 -36c314,-25 522,-349 522,-709 0,-360 -208,-651 -522,-649zm51 1995l-1001 112c-50,6 -89,-34 -89,-90l0 -2593c0,-52 39,-95 89,-93l1001 26c636,16 1061,522 1061,1266 0,744 -426,1301 -1061,1372z"/>
  <path class="fil0" d="M9145 4423c293,-31 540,-296 550,-643 11,-350 -197,-654 -546,-654 -341,-2 -566,302 -574,672 -8,369 232,646 570,625zm54 -1828c624,50 1045,537 1044,1155 -21,623 -496,1139 -1121,1209 -655,58 -1132,-445 -1120,-1145 12,-706 485,-1254 1197,-1220z"/>
 </g>
</svg>
